inDegrees=no
num_controls=7
num_derivatives=13
num_iterations=129
num_multipliers=7
num_parameters=0
num_slacks=7
num_states=26
objective=0.444925
objective_accelerations=0.058081
objective_balance=0.003603
objective_effort=0.023347
objective_height=0.354398
objective_ligament=0.005497
solver_duration=2032.150254
status=Solve_Succeeded
success=true
DataType=double
version=3
OpenSimVersion=4.5
endheader
time	/jointset/ground_pelvis/pelvis_tilt/value	/jointset/ground_pelvis/pelvis_tx/value	/jointset/ground_pelvis/pelvis_ty/value	/jointset/hip_l/hip_flexion_l/value	/jointset/hip_l/hip_adduction_l/value	/jointset/hip_l/hip_rotation_l/value	/jointset/back/lumbar_extension/value	/jointset/patellofemoral_l/patellar_flexion_l/value	/jointset/knee_l/knee_flexion_l/value	/jointset/knee_l/knee_adduction_l/value	/jointset/knee_l/knee_rotation_l/value	/jointset/ankle_l/ankle_angle_l/value	/jointset/subtalar_l/subtalar_angle_l/value	/jointset/ground_pelvis/pelvis_tilt/speed	/jointset/ground_pelvis/pelvis_tx/speed	/jointset/ground_pelvis/pelvis_ty/speed	/jointset/hip_l/hip_flexion_l/speed	/jointset/hip_l/hip_adduction_l/speed	/jointset/hip_l/hip_rotation_l/speed	/jointset/back/lumbar_extension/speed	/jointset/patellofemoral_l/patellar_flexion_l/speed	/jointset/knee_l/knee_flexion_l/speed	/jointset/knee_l/knee_adduction_l/speed	/jointset/knee_l/knee_rotation_l/speed	/jointset/ankle_l/ankle_angle_l/speed	/jointset/subtalar_l/subtalar_angle_l/speed	/forceset/tau_hip_flexion_l	/forceset/tau_hip_adduction_l	/forceset/tau_hip_rotation_l	/forceset/tau_knee_flexion_l	/forceset/tau_ankle_angle_l	/forceset/tau_subtalar_angle_l	/forceset/tau_lumbar_extension	lambda_cid13_p0	lambda_cid13_p1	lambda_cid13_p2	lambda_cid13_p3	lambda_cid13_p4	lambda_cid13_p5	lambda_cid14_p0	/jointset/ground_pelvis/pelvis_tilt/accel	/jointset/ground_pelvis/pelvis_tx/accel	/jointset/ground_pelvis/pelvis_ty/accel	/jointset/hip_l/hip_flexion_l/accel	/jointset/hip_l/hip_adduction_l/accel	/jointset/hip_l/hip_rotation_l/accel	/jointset/back/lumbar_extension/accel	/jointset/patellofemoral_l/patellar_flexion_l/accel	/jointset/knee_l/knee_flexion_l/accel	/jointset/knee_l/knee_adduction_l/accel	/jointset/knee_l/knee_rotation_l/accel	/jointset/ankle_l/ankle_angle_l/accel	/jointset/subtalar_l/subtalar_angle_l/accel	gamma_cid13_p0	gamma_cid13_p1	gamma_cid13_p2	gamma_cid13_p3	gamma_cid13_p4	gamma_cid13_p5	gamma_cid14_p0
1.5	-0.3747746585143994	-0.0263060460147154	0.7597985235366814	1.11934021673322	-0.4347400503899206	-0.2117157025919288	-0.2259361099174844	0.8073601655742528	0.8073601655742795	-0.1296386101848198	-0.1463755427106247	0.1250495869518192	-0.02077429537839041	0.6947133668537981	0.2805648773941873	0.5414504869202472	-2.495527659505044	0.2079441085004029	-0.7205784948105708	0.3134052919990352	-2.02095241123395	-2.020952411235261	-0.133410150445836	0.1327992217030056	-0.3867998029312186	0.04148377898230302	-0.1781579300320695	0.02789701218335453	-0.0083641474845059	-0.2018207603340598	0.04259961070702827	0.04452237112096418	0.1707657887336398	-18.43512783073547	-19.06781032773154	6.084590388286793	-7.624827217408112	-519.8491525643705	-61.88967988886793	-24.84572722648185	0.6921610154424646	0.7167723106319882	-0.5244399513859368	-1.31203661161452	0.7147514911354661	-0.2011073306535192	1.48324222742162	-1.324346733645778	-1.324346733645812	0.1279240112209145	0.2193536077318618	-0.5116731226371725	0.5116580593244402	5.217408010459953e-07	3.781236563345725e-07	-3.084585820431621e-06	-1.47502369909039e-07	7.458440401552157e-07	-9.975107552753561e-08	4.748293908094972e-07
1.51	-0.3677929643258968	-0.0234648292067488	0.7651857287663506	1.094320995910277	-0.4326265366813748	-0.2189289268351838	-0.2227292588899761	0.7870866758171043	0.7870866758170866	-0.1309705496330287	-0.1450370109767739	0.1211561645239678	-0.02033588146409405	0.7015211128660888	0.2876417109119186	0.5358745699867282	-2.507965518265929	0.2147356280271503	-0.7219502970629286	0.3279300524745827	-2.033461322316591	-2.033461322316634	-0.1329819907008247	0.1349078485650616	-0.3918138414884513	0.04620242795278441	-0.172002928613154	0.02705727890882614	-0.008029685945722401	-0.1989748879967083	0.04250071873862923	0.04382883070010712	0.1657778031606126	-18.24490288427778	-18.80733421579026	6.051539596116746	-7.460220486543651	-515.7838178184879	-62.10788495600848	-25.76383430656374	0.6594771152763749	0.6976184716671551	-0.5914208202075616	-1.15695033455264	0.6581226423958345	-0.08738217799692512	1.431863803424822	-1.171622873140748	-1.171622872950453	-0.0003388131395344589	0.2062021024438212	-0.4856357723981458	0.4526543868979362	5.08131762847566e-07	6.496836962475098e-07	-2.734315883848387e-06	-6.469584972950471e-08	7.324108878967048e-07	5.36356406693265e-09	4.658981175613086e-07
1.52	-0.3607463135330403	-0.02055394814374019	0.7705137241755099	1.06918793853448	-0.4304457536857706	-0.2261523022020563	-0.2193782060885517	0.7666966050336167	0.7666966050335655	-0.1322983276376475	-0.1436774759988985	0.1172147284005179	-0.01985014384589527	0.7077046877245384	0.294497728402591	0.5296085228183015	-2.518294970075897	0.2213979659119553	-0.7226087195340867	0.34224564678227	-2.044268616501932	-2.044268616500706	-0.1325778617270434	0.1369998705071712	-0.3964025420509575	0.05094851976278371	-0.165847927194235	0.0262175456343001	-0.007695224406967681	-0.1961290156593543	0.04240182677023079	0.0431352902792533	0.1607898175875876	-18.05746794632241	-18.54885045718819	6.021641969837513	-7.332958660046675	-511.7819043703826	-62.38488510597807	-26.68139952681296	0.5673267846742673	0.6726091052201811	-0.6624659983674787	-0.8903552214310494	0.6889151627469878	-0.05843137441356967	1.441408993849582	-0.984023354185848	-0.9840233541858245	0.1231178569749153	0.2160326237425792	-0.4266055236919045	0.5171466272280186	4.881748216588185e-07	9.202053079658676e-07	-2.368906381157126e-06	1.688578419692602e-08	7.141426396038363e-07	9.822224737929306e-08	4.53554191225258e-07
1.53	-0.3536409522810626	-0.01757572645397755	0.7757756811274351	1.043962142768658	-0.4281990091446901	-0.2333800263628322	-0.215885275111742	0.746207061285713	0.7462070612856936	-0.1336213134903551	-0.1422979993511427	0.113229510344848	-0.01931680582116453	0.7132585934895901	0.3010976239364461	0.5226728114245505	-2.5264988234626	0.22792156529299	-0.7228180140564359	0.3562871222252998	-2.053344270016029	-2.053344270015466	-0.132026087737746	0.1388947193820336	-0.4005705065930504	0.05571548689218971	-0.1597320768742325	0.02542646976389313	-0.007349297818092606	-0.1931901824071738	0.04206431863709573	0.04220916555811986	0.1557772291497971	-17.96210746694552	-18.16733207079863	5.965386547595806	-7.004666472419459	-507.8820008795488	-62.45449834952107	-27.59836365958769	0.5331005329060442	0.6463599642884897	-0.7254964898349213	-0.730562560342444	0.6297262908603055	0.01593012398384921	1.37750286638318	-0.8250426975592853	-0.825042697658655	0.02034394019218514	0.1757126430508347	-0.4012694238326707	0.4559268719855872	4.614732335428582e-07	1.189623589727484e-06	-1.987411089476086e-06	9.716597647943424e-08	6.907371017744628e-07	1.78058977141914e-07	4.375843209833541e-07
1.54	-0.3464833163593369	-0.01453296977151228	0.7809650064094316	1.018665276036359	-0.425887899816783	-0.2406062217458063	-0.2122535321711313	0.7256356197331608	0.7256356197331664	-0.134938954249113	-0.1408996738898998	0.1092047371428843	-0.01873590710190196	0.718159621674058	0.3074047269431185	0.5150821888325572	-2.532509163371405	0.2342709232771687	-0.722302963973608	0.3700080395424692	-2.060648177431632	-2.060648177431731	-0.1315088429370474	0.1407696332046063	-0.404313571309731	0.06046065866914361	-0.1536162265542268	0.02463539389348622	-0.007003371229216638	-0.1902513491549936	0.04172681050396015	0.04128304083698621	0.15076464071201	-17.86876611917899	-17.78961997944755	5.914490802520675	-6.714534309799948	-504.027567081293	-62.57542921212588	-28.51535388537798	0.4367512685575181	0.6140505997836536	-0.793448238015937	-0.4516525258513879	0.6540668833757942	0.08643754662179814	1.377297368677524	-0.6296741344868275	-0.6296741344868199	0.1162120192551432	0.212045613284627	-0.3416255586094428	0.5127875567375995	4.420498648026652e-07	1.405161126810815e-06	-1.709655845481229e-06	1.58317166576763e-07	6.78846189361371e-07	2.473174227878441e-07	4.268033539052005e-07
1.55	-0.3392799686308044	-0.01142864657476651	0.786075257478594	0.9933191711081834	-0.4235142136703284	-0.2478245398623551	-0.2084863803765153	0.7050000186585839	0.7050000186585904	-0.1362511204472789	-0.1394832950159194	0.1051447103648804	-0.01810766090141791	0.7223908345504882	0.3134060577555395	0.5068672542946677	-2.536339817754337	0.2404313764974617	-0.7212652244884824	0.3833560040928385	-2.06616802012367	-2.066168020124154	-0.130918262664555	0.1424878225911742	-0.4076135229326703	0.0651839925108586	-0.1473710644775489	0.02342331083950979	-0.006690133424202175	-0.1877611134743778	0.04178361194621435	0.04030334526436402	0.1456393410213368	-17.66806811821054	-17.40711434907209	5.862458318894636	-6.451915550587513	-500.4177847235193	-62.72900255455449	-29.43357288148135	0.3984516834800298	0.5851399557668203	-0.8504954701579864	-0.2929527192870633	0.5917611302797597	0.1271423029252139	1.303598705040806	-0.4676205991399939	-0.4676205991976896	0.03161437136672059	0.1486234878388823	-0.3123881904734004	0.4513258900984142	4.310122705606386e-07	1.558618675460472e-06	-1.551427178168273e-06	1.974284193737776e-07	6.802221279713855e-07	3.043878454297616e-07	4.220009056896285e-07
1.56	-0.3320378796962483	-0.008265916943137419	0.7911003633206809	0.9679459234712247	-0.4210799776738857	-0.2550295405533594	-0.2045877383950307	0.6843183229045722	0.6843183229045735	-0.137557154174701	-0.1380503506707689	0.1010540424253798	-0.01743233744407469	0.7259078628786871	0.3190860139197838	0.4980531434174741	-2.537937705128188	0.2463808932747024	-0.7196394788646659	0.396306076916174	-2.069867113318814	-2.069867113319682	-0.1302823487872448	0.144082727437582	-0.4104418036090988	0.06987611004097227	-0.1411259024008668	0.02221122778553537	-0.006376895619222959	-0.1852708777937586	0.0418404133884691	0.03932364969174498	0.1405140413306669	-17.46885017356449	-17.02812008104536	5.8152935204151	-6.226150563380519	-496.8434508147688	-62.93033343683615	-30.35044550279665	0.2939143589112788	0.5497756701483091	-0.9132835058767833	-0.005099124035398637	0.6118795947653565	0.2040387743599535	1.297719023270763	-0.2655242351079476	-0.2655242351079633	0.125278740218698	0.1873887052526264	-0.2472913693072935	0.506544294417332	4.037251701821242e-07	1.706179605491082e-06	-1.342183802646464e-06	2.482768861485033e-07	6.472014621432203e-07	3.47143706926413e-07	4.100874160339977e-07
1.57	-0.3247642605437117	-0.005048097305062901	0.7960343797422212	0.9425681482002387	-0.4185872524676079	-0.2622160233166128	-0.2005616884973729	0.6636090980678125	0.663609098067801	-0.1388559494760624	-0.1366025459893764	0.09693758711013306	-0.01671008827636936	0.7286950688411041	0.3244124532386615	0.4886582272488219	-2.53723446879135	0.2521214771700114	-0.7175500414867504	0.4088160115793286	-2.071662883373541	-2.071662883374277	-0.1294796745469355	0.1454649189285703	-0.4127715716509112	0.07456067383855529	-0.1349534833210394	0.02101845288273262	-0.006076234002725593	-0.1827152373217993	0.04173539488812496	0.03813406150579428	0.1354042559260974	-17.34207145821151	-16.54241487660133	5.747835759698422	-5.839099718190586	-493.4597913793741	-62.9577913517185	-31.25025301971624	0.2529787981071752	0.5143292983784586	-0.9662772350227588	0.1654627095177762	0.548604632430899	0.2277889432741517	1.214447032439322	-0.0894332533278092	-0.08943325330789047	0.0576004043315145	0.1114028872515676	-0.2141032815277826	0.4472539328398451	3.561261871330003e-07	1.846369762247884e-06	-1.069172041863591e-06	3.137968703953677e-07	5.711850407673308e-07	3.720063669914821e-07	3.892851245782934e-07
1.58	-0.3174663983149104	-0.001778963026675394	0.8008717106895423	0.9172088908320164	-0.4160384300532731	-0.2693783331613342	-0.1964131759841633	0.6428913495579712	0.642891349557948	-0.1401467503073428	-0.1351413656898273	0.09280017736248633	-0.01594142516860595	0.7307564781315307	0.3293489419823815	0.478716048573637	-2.534234124575537	0.25760033488601	-0.714804895158163	0.4207986000265432	-2.071571847935177	-2.07157184793578	-0.1286834547708474	0.146757851068744	-0.4146326900891065	0.07915889805258068	-0.1287810642412119	0.01982567797992926	-0.005775572386232821	-0.1801595968498398	0.04163037638778053	0.03694447331984276	0.1302944705215286	-17.22375762797601	-16.05894154668415	5.684976986906483	-5.458471039888163	-490.2043179917129	-63.04036652761369	-32.12681437384654	0.1487550245131812	0.471785555116752	-1.022736007183288	0.4543224517597786	0.5595343589032976	0.3351805644943301	1.192249780082792	0.1118368635101912	0.1118368635101925	0.1239878473744545	0.1695368350897293	-0.1535614485838696	0.4892763777058047	3.129215575219964e-07	1.965397066491972e-06	-8.284828039795239e-07	3.664595483681676e-07	5.06807092272324e-07	3.906296187148788e-07	3.69187537695592e-07
1.59	-0.3101516786195702	0.001537546870317682	0.8056069821789419	0.8918912924041422	-0.4134360424752327	-0.2765105180332331	-0.1921474030985199	0.6221841373263983	0.6221841373263688	-0.1414290262327663	-0.1336680606614529	0.08864665413518961	-0.01512699876786782	0.732060663813496	0.3338835759210192	0.4682580561862871	-2.528898594971664	0.2628300508202255	-0.7115282918866522	0.4322660789539772	-2.069547099589131	-2.069547099589562	-0.1277679935027501	0.147887988054076	-0.415985623122561	0.08371425413683295	-0.1226981158257089	0.01838253999869296	-0.005514785687974897	-0.1777027053496257	0.0416307894412781	0.03573748216118973	0.1252591891678723	-17.0898404021771	-15.57177983189369	5.622828895017195	-5.08506023677927	-487.224896526391	-63.14008265925472	-32.97462122290131	0.1022041181631953	0.4339676207104786	-1.069273968354146	0.6311897544716956	0.4974006549476792	0.3397650096228135	1.110512226857274	0.2962509108911294	0.2962509109168158	0.07621784910491171	0.08230671423146654	-0.1131405466261418	0.4365699952615332	2.756806932912979e-07	2.055703356611663e-06	-6.316598471724074e-07	4.016730249690239e-07	4.582242141156569e-07	4.007851019745776e-07	3.500463355905375e-07
